<mxfile host="Electron" modified="2024-01-08T16:44:35.762Z" agent="Mozilla/5.0 (Windows NT 10.0; Win64; x64) AppleWebKit/537.36 (KHTML, like Gecko) draw.io/22.1.16 Chrome/120.0.6099.109 Electron/28.1.0 Safari/537.36" etag="3h2lwOWiN7abnTS2r4lM" compressed="false" version="22.1.16" type="device">
  <diagram id="_IrKB-7pmVLJ8V-EMXvs" name="Seite-1">
    <mxGraphModel dx="2603" dy="836" grid="1" gridSize="10" guides="1" tooltips="1" connect="1" arrows="1" fold="1" page="1" pageScale="1" pageWidth="1169" pageHeight="827" math="0" shadow="0">
      <root>
        <object tooltip="" id="0">
          <ag_global_attributes>
            <ag_global_attribute name="Resources" value="" iconName="hammer" min="0" max="5" />
            <ag_global_attribute name="Knowledge" value="" iconName="lightbulb" min="0" max="5" />
            <ag_global_attribute name="Location" value="" iconName="map_pin_ellipse" min="0" max="1" />
            <ag_global_attribute name="Impact" value="" iconName="flame" min="0" max="5" />
          </ag_global_attributes>
          <ag_attributes />
          <ag_computed_attributes />
          <ag_aggregation_functions>
            <ag_aggregation_function name="default" id="6b1d22791hih8" default="activity_w;link" fn="function (collection) { &#10;    var result = null; &#10;    if (collection.childAttributes.length == 1) { &#10;        result = collection.childAttributes[0].attributes;&#10;        result._marking = collection.childAttributes[0].id;&#10;    } else { &#10;        var candidates = []; &#10;        var worstValue = 0; &#10;        collection.childAttributes.forEach(function(child) { &#10;            var value = parseInt(child.computedAttribute); &#10;            if (value &gt; worstValue) { &#10;                worstValue = value; &#10;                candidates = []; &#10;                candidates.push(child); &#10;            } else if (value == worstValue) { &#10;                candidates.push(child); &#10;            } &#10;        }); &#10;        var tiebreaker = function(candidates, name, max) { &#10;            var min_value = max; &#10;            candidates.forEach(function(node) { &#10;                min_value = Math.min(min_value, node.attributes[name]); &#10;            }); &#10;            result = []; &#10;            candidates.forEach(function(node) { &#10;                if (node.attributes[name] == min_value) { &#10;                    result.push(node); &#10;                } &#10;            }); &#10;            return result; &#10;        }; &#10;        if (candidates.length &gt; 1) { &#10;            candidates = tiebreaker(candidates, &quot;Resources&quot;, collection.globalAttributes[&quot;Resources&quot;].max); &#10;            if (candidates.length &gt; 1) { &#10;                candidates = tiebreaker(candidates, &quot;Knowledge&quot;, collection.globalAttributes[&quot;Knowledge&quot;].max); &#10;            } &#10;        } &#10;        result = candidates[0].attributes;&#10;        result._marking = candidates[0].id;&#10;    } &#10;    return result; &#10;}" />
            <ag_aggregation_function name="AND" id="gf0d4f199018" default="and" fn="function (collection) { &#10;    var result = {}; &#10;    var ids = [];&#10;    collection.childAttributes.forEach(function(child) { &#10;    for (var attribute in child.attributes) { &#10;            if (attribute in result) { &#10;                result[attribute] += parseInt(child.attributes[attribute]); &#10;            } else { &#10;                result[attribute] = parseInt(child.attributes[attribute]); &#10;            } &#10;        }&#10;        ids.push(child.id);&#10;    }); &#10;    for (var attribute in result) { &#10;        if (attribute in collection.globalAttributes) { &#10;            result[attribute] = Math.min(collection.globalAttributes[attribute].max, result[attribute]); &#10;        } &#10;    }&#10;    result._marking = ids.join(&quot;;&quot;);&#10;    return result; &#10;}" />
            <ag_aggregation_function name="Security Control" id="73f575i0ghij5" default="activity_g;activity_y" fn="function (collection) { &#10;    var result = {}; &#10;    for (var attribute in collection.localAttributes) { &#10;        result[attribute] = parseInt(collection.localAttributes[attribute]); &#10;    } &#10;    collection.childAttributes.forEach(function(child) { &#10;        for (var attribute in child.attributes) { &#10;            if (attribute in collection.globalAttributes) { &#10;                if (attribute in result) { &#10;                    result[attribute] += parseInt(child.attributes[attribute]); &#10;                } &#10;            } &#10;        } &#10;    }); &#10;    for (var attribute in result) { &#10;        if (attribute in collection.globalAttributes) { &#10;            result[attribute] = Math.min(collection.globalAttributes[attribute].max, result[attribute]); &#10;        } &#10;    } &#10;    return result; &#10;}" />
            <ag_aggregation_function name="Risk" id="egf49jfgj408" default="consequence" fn="function (collection) {  &#10;    var maxRisk = &quot;L&quot;; &#10;    var matrix = [ &#10;        [&quot;L&quot;, &quot;L&quot;, &quot;L&quot;, &quot;L&quot;, &quot;L&quot;], &#10;        [&quot;L&quot;, &quot;L&quot;, &quot;M&quot;, &quot;M&quot;, &quot;M&quot;], &#10;        [&quot;L&quot;, &quot;M&quot;, &quot;M&quot;, &quot;S&quot;, &quot;S&quot;], &#10;        [&quot;L&quot;, &quot;M&quot;, &quot;S&quot;, &quot;V&quot;, &quot;V&quot;], &#10;        [&quot;L&quot;, &quot;M&quot;, &quot;S&quot;, &quot;V&quot;, &quot;V&quot;], &#10;    ];&#10;    var updatedImpacts = [];&#10;    var ids = [];&#10; &#10;    var compareRisk = function(risk1, risk2) { &#10;        /*&#10;        * Returns:&#10;        *  - Null: if one of the parameters is not a character representing a risk&#10;        *  - Negativ integer: if risk1 &lt; risk2&#10;        *  - Zero: if risks are equal&#10;        *  - Positive integer: if risk1 &gt; risk2&#10;        */&#10;        var values = [&quot;L&quot;, &quot;M&quot;, &quot;S&quot;, &quot;V&quot;]; &#10;        var index_risk1 = values.indexOf(risk1); &#10;        var index_risk2 = values.indexOf(risk2); &#10; &#10;        if (index_risk1 == -1 || index_risk2 == -1) { &#10;            return null; &#10;        } &#10;        return index_risk1 - index_risk2; &#10; &#10;    } &#10;     &#10;    collection.childAttributes.forEach(function(child) {  &#10;        var impact = 1;  &#10;        if (child.edgeWeight !== null) {  &#10;            impact = parseInt(child.edgeWeight);  &#10;        }&#10;        var _impact = parseInt(child.attributes._impact) || 0;&#10;        impact = Math.max(impact - _impact, 1);&#10;        updatedImpacts.push(child.id + ':' + impact);&#10;        var af = parseInt(child.computedAttribute) || parseInt(child.attributes._af);&#10;        risk = matrix[af - 1][impact - 1];&#10;        result = compareRisk(risk, maxRisk);&#10;        if (result &gt; 0) { &#10;            maxRisk = risk;&#10;            ids = [child.id];&#10;        } else if (result == 0){&#10;            ids.push(child.id);&#10;        }&#10;    });  &#10;  &#10;    var result = {'_risk': maxRisk, &quot;_marking&quot;: ids.join(&quot;;&quot;)};&#10;    if (updatedImpacts.length &gt; 0) {&#10;        result._weight = updatedImpacts.join(';');&#10;    }&#10;    return result;&#10;}" />
            <ag_aggregation_function name="Impact" id="3j7heb16d5f6" default="" fn="function(collection) {&#10;    var impact = 0;&#10;    var result = {}&#10;    &#10;    collection.childAttributes.forEach(function(child) {&#10;        if (&quot;Impact&quot; in child.attributes) {&#10;            impact += parseInt(child.attributes[&quot;Impact&quot;]);&#10;        } else if (&quot;Resources&quot; in child.attributes &amp;&amp; &quot;Knowledge&quot; in child.attributes &amp;&amp; &quot;Location&quot; in child.attributes) {&#10;            result._af = child.computedAttribute&#10;            result._marking = child.id;&#10;        }&#10;    });&#10;    result._impact = Math.min(impact, collection.globalAttributes[&quot;Impact&quot;].max);&#10;    &#10;    return result;&#10;}" />
          </ag_aggregation_functions>
          <ag_computed_attributes_functions>
            <ag_computed_attributes_function name="default" id="dbg60ff69g9a" default="activity_w;activity_g;activity_y" fn="function (collection) { &#10;    var colorMatrix = {&#10;        5: {&quot;fillColor&quot;: &quot;#cc0000&quot;, &quot;fontColor&quot;: &quot;#ffffff&quot;},&#10;        4: {&quot;fillColor&quot;: &quot;#ff4000&quot;, &quot;fontColor&quot;: &quot;#ffffff&quot;},&#10;        3: {&quot;fillColor&quot;: &quot;#ffdd00&quot;, &quot;fontColor&quot;: &quot;#000000&quot;},&#10;        2: {&quot;fillColor&quot;: &quot;#d4ff00&quot;, &quot;fontColor&quot;: &quot;#000000&quot;},&#10;        1: {&quot;fillColor&quot;: &quot;#40ff00&quot;, &quot;fontColor&quot;: &quot;#000000&quot;}&#10;    }&#10;    var matrix = [ &#10;        [5, 5, 4, 3, 2], &#10;        [5, 4, 4, 3, 2], &#10;        [5, 4, 4, 3, 2], &#10;        [4, 3, 3, 2, 1], &#10;        [3, 2, 2, 1, 1], &#10;    ];&#10;    var result = {};&#10;    &#10;    if (&quot;Knowledge&quot; in collection.cellAttributes &amp;&amp; &quot;Resources&quot; in collection.cellAttributes) {&#10;        var knowledgeIndex = parseInt(collection.cellAttributes[&quot;Knowledge&quot;]) - 1; &#10;        var resourcesIndex = parseInt(collection.cellAttributes[&quot;Resources&quot;]) - 1;&#10;        &#10;        var value = Math.min(5, &#10;            Math.max(collection.globalAttributes[&quot;Location&quot;].max, &#10;                Math.max( matrix[knowledgeIndex][resourcesIndex] - parseInt(collection.cellAttributes[&quot;Location&quot;])) &#10;            ));&#10;        result = colorMatrix[value] || result;&#10;        result[&quot;value&quot;] = value;&#10;    }&#10;    &#10;    return result;&#10;}" />
            <ag_computed_attributes_function name="Risk" id="6c831697g9i0a" default="consequence" fn="function(collection){&#10;    var riskMatrix = {&#10;        &quot;V&quot;: {&quot;fillColor&quot;: &quot;#cc0000&quot;, &quot;fontColor&quot;: &quot;#ffffff&quot;},&#10;        &quot;S&quot;: {&quot;fillColor&quot;: &quot;#ff4000&quot;, &quot;fontColor&quot;: &quot;#ffffff&quot;},&#10;        &quot;M&quot;: {&quot;fillColor&quot;: &quot;#ffdd00&quot;, &quot;fontColor&quot;: &quot;#000000&quot;},&#10;        &quot;L&quot;: {&quot;fillColor&quot;: &quot;#40ff00&quot;, &quot;fontColor&quot;: &quot;#000000&quot;},&#10;    };&#10;    var result = {};&#10;    &#10;    if (&quot;_risk&quot; in collection.cellAttributes) {&#10;        var risk = collection.cellAttributes[&quot;_risk&quot;];&#10;        result = riskMatrix[risk] || result;&#10;        result[&quot;value&quot;] = risk;&#10;    }&#10;    &#10;    return result; &#10;}" />
          </ag_computed_attributes_functions>
          <mxCell />
        </object>
        <object id="1">
          <ag_attributes />
          <ag_computed_attributes />
          <mxCell parent="0" />
        </object>
        <object id="NY-WaI75QKOfGS1F8uei-7">
          <ag_attributes />
          <ag_computed_attributes />
          <mxCell style="edgeStyle=none;rounded=0;orthogonalLoop=1;jettySize=auto;html=1;strokeWidth=2;startArrow=diamondThin;startFill=1;endArrow=none;endFill=0;strokeColor=#000000;" parent="1" source="reGFVTUNuUcH1NaiU9KH-5" target="4U9F1CLsy6yUegcDI4D1-3" edge="1">
            <mxGeometry relative="1" as="geometry" />
          </mxCell>
        </object>
        <object id="NY-WaI75QKOfGS1F8uei-8">
          <ag_attributes />
          <ag_computed_attributes />
          <mxCell style="edgeStyle=none;rounded=0;orthogonalLoop=1;jettySize=auto;html=1;strokeWidth=2;startArrow=diamondThin;startFill=1;endArrow=none;endFill=0;strokeColor=#000000;" parent="1" source="lqs9lEzcYMTn2uexpbQ0-40" target="NY-WaI75QKOfGS1F8uei-6" edge="1">
            <mxGeometry relative="1" as="geometry" />
          </mxCell>
        </object>
        <object label="cf. Remote Controlled Rolling Stock" id="lqs9lEzcYMTn2uexpbQ0-18">
          <ag_attributes />
          <ag_computed_attributes />
          <mxCell style="rounded=0;whiteSpace=wrap;align=left;verticalAlign=top;container=1;collapsible=0;" parent="1" vertex="1">
            <mxGeometry x="550" y="270" width="700" height="150" as="geometry" />
          </mxCell>
        </object>
        <object label="Deception of route observation&#10;Prevention of obstacle detection" Resources="2" Knowledge="3" Location="0" id="lqs9lEzcYMTn2uexpbQ0-15">
          <ag_attributes label="NaN" Resources="5" Knowledge="5" Location="0" />
          <ag_computed_attributes fillColor="#40ff00" fontColor="#000000" value="1" />
          <ag_computed_attributes_function_reference ag_computed_attributes_function_reference="dbg60ff69g9a" />
          <ag_aggregation_function_reference ag_aggregation_function_reference="73f575i0ghij5" />
          <mxCell style="whiteSpace=wrap;fillColor=#fee599;shape=attackgraphs.node;verticalAlign=top;spacingRight=20;" parent="lqs9lEzcYMTn2uexpbQ0-18" vertex="1">
            <mxGeometry x="25" y="47.058823529411754" width="150" height="90" as="geometry" />
          </mxCell>
        </object>
        <object label="Disturbance detection deception (setting up false physical obstacles)" Resources="1" Knowledge="1" Location="1" id="lqs9lEzcYMTn2uexpbQ0-13">
          <ag_attributes label="NaN" Resources="4" Knowledge="3" Location="1" />
          <ag_computed_attributes fillColor="#d4ff00" fontColor="#000000" value="2" />
          <ag_computed_attributes_function_reference ag_computed_attributes_function_reference="dbg60ff69g9a" />
          <ag_aggregation_function_reference ag_aggregation_function_reference="73f575i0ghij5" />
          <mxCell style="whiteSpace=wrap;fillColor=#fee599;shape=attackgraphs.node;verticalAlign=top;spacingRight=20;" parent="lqs9lEzcYMTn2uexpbQ0-18" vertex="1">
            <mxGeometry x="193" y="47.06" width="150" height="90" as="geometry" />
          </mxCell>
        </object>
        <object label="Pretending or causing of an obstacle" Resources="2" Knowledge="3" Location="0" id="lqs9lEzcYMTn2uexpbQ0-16">
          <ag_attributes label="NaN" Resources="5" Knowledge="5" Location="0" />
          <ag_computed_attributes fillColor="#40ff00" fontColor="#000000" value="1" />
          <ag_computed_attributes_function_reference ag_computed_attributes_function_reference="dbg60ff69g9a" />
          <ag_aggregation_function_reference ag_aggregation_function_reference="73f575i0ghij5" />
          <mxCell style="whiteSpace=wrap;fillColor=#fee599;shape=attackgraphs.node;verticalAlign=top;spacingRight=20;" parent="lqs9lEzcYMTn2uexpbQ0-18" vertex="1">
            <mxGeometry x="362" y="47.06" width="150" height="90" as="geometry" />
          </mxCell>
        </object>
        <object label="Faking an operational malfunction&#10;(e.g. door malfunction)" Resources="2" Knowledge="3" Location="0" id="lqs9lEzcYMTn2uexpbQ0-14">
          <ag_attributes label="NaN" Resources="5" Knowledge="5" Location="0" />
          <ag_computed_attributes fillColor="#40ff00" fontColor="#000000" value="1" />
          <ag_computed_attributes_function_reference ag_computed_attributes_function_reference="dbg60ff69g9a" />
          <ag_aggregation_function_reference ag_aggregation_function_reference="73f575i0ghij5" />
          <mxCell style="whiteSpace=wrap;fillColor=#fee599;shape=attackgraphs.node;verticalAlign=top;spacingRight=20;" parent="lqs9lEzcYMTn2uexpbQ0-18" vertex="1">
            <mxGeometry x="530" y="47.058823529411754" width="150" height="90" as="geometry" />
          </mxCell>
        </object>
        <object label="Attack Target&#10;Automated Driving" id="reGFVTUNuUcH1NaiU9KH-1">
          <ag_attributes />
          <ag_computed_attributes />
          <mxCell style="whiteSpace=wrap;shape=trapezoid;size=0.075;" parent="1" vertex="1">
            <mxGeometry x="440" y="10" width="300" height="60" as="geometry" />
          </mxCell>
        </object>
        <object id="reGFVTUNuUcH1NaiU9KH-38">
          <ag_attributes />
          <ag_computed_attributes />
          <mxCell style="edgeStyle=none;rounded=0;orthogonalLoop=1;jettySize=auto;html=1;entryX=1;entryY=0.5;entryDx=0;entryDy=0;entryPerimeter=0;strokeWidth=2;strokeColor=#000000;" parent="1" source="reGFVTUNuUcH1NaiU9KH-2" target="H-f2aqcX1pLiw3MsK8zM-5" edge="1">
            <mxGeometry relative="1" as="geometry">
              <mxPoint x="248" y="890" as="targetPoint" />
            </mxGeometry>
          </mxCell>
        </object>
        <object id="lqs9lEzcYMTn2uexpbQ0-12">
          <ag_attributes />
          <ag_computed_attributes />
          <mxCell style="edgeStyle=none;rounded=0;orthogonalLoop=1;jettySize=auto;html=1;strokeWidth=2;strokeColor=#000000;" parent="1" source="reGFVTUNuUcH1NaiU9KH-2" target="lqs9lEzcYMTn2uexpbQ0-11" edge="1">
            <mxGeometry relative="1" as="geometry" />
          </mxCell>
        </object>
        <object label="Forge train position" Resources="" Knowledge="" Location="" id="reGFVTUNuUcH1NaiU9KH-2">
          <ag_attributes label="Fälschung ortsfester Referenzpunkte" Resources="4" Knowledge="4" Location="1" _marking="lqs9lEzcYMTn2uexpbQ0-11" />
          <ag_computed_attributes fillColor="#40ff00" fontColor="#000000" value="1" />
          <ag_aggregation_function_reference ag_aggregation_function_reference="6b1d22791hih8" />
          <ag_computed_attributes_function_reference ag_computed_attributes_function_reference="dbg60ff69g9a" />
          <mxCell style="whiteSpace=wrap;shape=attackgraphs.node;verticalAlign=top;spacingRight=20;" parent="1" vertex="1">
            <mxGeometry x="160" y="760" width="150" height="60" as="geometry" />
          </mxCell>
        </object>
        <object id="lqs9lEzcYMTn2uexpbQ0-41">
          <ag_attributes />
          <ag_computed_attributes />
          <mxCell style="edgeStyle=none;rounded=0;orthogonalLoop=1;jettySize=auto;html=1;strokeWidth=2;strokeColor=#000000;" parent="1" source="reGFVTUNuUcH1NaiU9KH-3" target="lqs9lEzcYMTn2uexpbQ0-40" edge="1">
            <mxGeometry relative="1" as="geometry" />
          </mxCell>
        </object>
        <object id="lqs9lEzcYMTn2uexpbQ0-42">
          <ag_attributes />
          <ag_computed_attributes />
          <mxCell style="edgeStyle=none;rounded=0;orthogonalLoop=1;jettySize=auto;html=1;strokeWidth=2;strokeColor=#000000;" parent="1" source="reGFVTUNuUcH1NaiU9KH-3" target="lqs9lEzcYMTn2uexpbQ0-39" edge="1">
            <mxGeometry relative="1" as="geometry" />
          </mxCell>
        </object>
        <object label="Make the train disappear by preventing the position report" Resources="" Knowledge="" Location="" id="reGFVTUNuUcH1NaiU9KH-3">
          <ag_attributes label="NaN" Resources="5" Knowledge="4" Location="0" _marking="lqs9lEzcYMTn2uexpbQ0-39" />
          <ag_computed_attributes fillColor="#40ff00" fontColor="#000000" value="1" />
          <ag_aggregation_function_reference ag_aggregation_function_reference="6b1d22791hih8" />
          <ag_computed_attributes_function_reference ag_computed_attributes_function_reference="dbg60ff69g9a" />
          <mxCell style="whiteSpace=wrap;shape=attackgraphs.node;verticalAlign=top;spacingRight=20;" parent="1" vertex="1">
            <mxGeometry x="-170" y="600" width="150" height="75" as="geometry" />
          </mxCell>
        </object>
        <object id="cTA5m-jb8gUGxeVt_BSC-3">
          <ag_attributes />
          <ag_computed_attributes />
          <mxCell style="edgeStyle=none;orthogonalLoop=1;jettySize=auto;html=1;strokeWidth=2;startArrow=diamondThin;startFill=1;endArrow=none;endFill=0;curved=1;strokeColor=#000000;" parent="1" source="reGFVTUNuUcH1NaiU9KH-6" target="NY-WaI75QKOfGS1F8uei-19" edge="1">
            <mxGeometry relative="1" as="geometry">
              <Array as="points">
                <mxPoint x="1890" y="700" />
              </Array>
            </mxGeometry>
          </mxCell>
        </object>
        <object label="Spoofing the digital tail end indicator" Resources="4" Knowledge="4" Location="1" id="reGFVTUNuUcH1NaiU9KH-11">
          <ag_attributes />
          <ag_computed_attributes fillColor="#40ff00" fontColor="#000000" value="1" />
          <ag_computed_attributes_function_reference ag_computed_attributes_function_reference="dbg60ff69g9a" />
          <mxCell style="whiteSpace=wrap;rounded=0;fillColor=#D7E3BF;shape=attackgraphs.node;verticalAlign=top;spacingRight=20;" parent="1" vertex="1">
            <mxGeometry x="-10" y="600" width="150" height="60" as="geometry" />
          </mxCell>
        </object>
        <object id="NY-WaI75QKOfGS1F8uei-23">
          <ag_attributes />
          <ag_computed_attributes />
          <mxCell style="edgeStyle=none;orthogonalLoop=1;jettySize=auto;html=1;strokeWidth=2;startArrow=diamondThin;startFill=1;endArrow=none;endFill=0;curved=1;strokeColor=#000000;" parent="1" source="reGFVTUNuUcH1NaiU9KH-13" target="NY-WaI75QKOfGS1F8uei-21" edge="1">
            <mxGeometry relative="1" as="geometry">
              <Array as="points">
                <mxPoint x="850" y="1120" />
              </Array>
            </mxGeometry>
          </mxCell>
        </object>
        <object label="Jamming the digital train rear disc" Resources="2" Knowledge="2" Location="1" id="reGFVTUNuUcH1NaiU9KH-13">
          <ag_attributes label="NaN" Resources="4" Knowledge="5" Location="1" />
          <ag_computed_attributes fillColor="#40ff00" fontColor="#000000" value="1" />
          <ag_computed_attributes_function_reference ag_computed_attributes_function_reference="dbg60ff69g9a" />
          <ag_aggregation_function_reference ag_aggregation_function_reference="73f575i0ghij5" />
          <mxCell style="whiteSpace=wrap;rounded=0;fillColor=#D7E3BF;shape=attackgraphs.node;verticalAlign=top;spacingRight=20;" parent="1" vertex="1">
            <mxGeometry x="1130" y="480" width="150" height="60" as="geometry" />
          </mxCell>
        </object>
        <object id="reGFVTUNuUcH1NaiU9KH-17">
          <ag_attributes />
          <ag_computed_attributes />
          <mxCell style="edgeStyle=none;rounded=0;orthogonalLoop=1;jettySize=auto;html=1;strokeWidth=2;strokeColor=#000000;" parent="1" source="lqs9lEzcYMTn2uexpbQ0-31" target="reGFVTUNuUcH1NaiU9KH-2" edge="1">
            <mxGeometry relative="1" as="geometry" />
          </mxCell>
        </object>
        <object id="lqs9lEzcYMTn2uexpbQ0-32">
          <ag_attributes />
          <ag_computed_attributes />
          <mxCell style="edgeStyle=none;rounded=0;orthogonalLoop=1;jettySize=auto;html=1;strokeWidth=2;strokeColor=#000000;" parent="1" source="reGFVTUNuUcH1NaiU9KH-16" target="lqs9lEzcYMTn2uexpbQ0-31" edge="1">
            <mxGeometry relative="1" as="geometry" />
          </mxCell>
        </object>
        <object id="lqs9lEzcYMTn2uexpbQ0-33">
          <ag_attributes />
          <ag_computed_attributes />
          <mxCell style="edgeStyle=none;rounded=0;orthogonalLoop=1;jettySize=auto;html=1;strokeWidth=2;strokeColor=#000000;" parent="1" source="reGFVTUNuUcH1NaiU9KH-16" target="reGFVTUNuUcH1NaiU9KH-5" edge="1">
            <mxGeometry relative="1" as="geometry" />
          </mxCell>
        </object>
        <object label="Suppression/diversion of payment of the path fee" Resources="" Knowledge="" Location="" id="reGFVTUNuUcH1NaiU9KH-16">
          <ag_attributes label="Fälschung ortsfester Referenzpunkte" Resources="4" Knowledge="4" Location="1" _marking="lqs9lEzcYMTn2uexpbQ0-31" />
          <ag_computed_attributes fillColor="#40ff00" fontColor="#000000" value="1" />
          <ag_computed_attributes_function_reference ag_computed_attributes_function_reference="dbg60ff69g9a" />
          <ag_aggregation_function_reference ag_aggregation_function_reference="6b1d22791hih8" />
          <mxCell style="whiteSpace=wrap;shape=attackgraphs.node;verticalAlign=top;spacingRight=20;" parent="1" vertex="1">
            <mxGeometry x="260" y="320" width="210" height="75" as="geometry" />
          </mxCell>
        </object>
        <object id="reGFVTUNuUcH1NaiU9KH-19">
          <ag_attributes />
          <ag_computed_attributes />
          <mxCell style="edgeStyle=none;rounded=0;orthogonalLoop=1;jettySize=auto;html=1;strokeWidth=2;strokeColor=#000000;" parent="1" source="reGFVTUNuUcH1NaiU9KH-18" target="reGFVTUNuUcH1NaiU9KH-2" edge="1">
            <mxGeometry relative="1" as="geometry" />
          </mxCell>
        </object>
        <object id="reGFVTUNuUcH1NaiU9KH-20">
          <ag_attributes />
          <ag_computed_attributes />
          <mxCell style="edgeStyle=none;rounded=0;orthogonalLoop=1;jettySize=auto;html=1;strokeWidth=2;strokeColor=#000000;" parent="1" source="reGFVTUNuUcH1NaiU9KH-18" target="reGFVTUNuUcH1NaiU9KH-11" edge="1">
            <mxGeometry relative="1" as="geometry" />
          </mxCell>
        </object>
        <object id="reGFVTUNuUcH1NaiU9KH-21">
          <ag_attributes />
          <ag_computed_attributes />
          <mxCell style="edgeStyle=none;rounded=0;orthogonalLoop=1;jettySize=auto;html=1;strokeWidth=2;strokeColor=#000000;" parent="1" source="reGFVTUNuUcH1NaiU9KH-18" target="reGFVTUNuUcH1NaiU9KH-3" edge="1">
            <mxGeometry relative="1" as="geometry" />
          </mxCell>
        </object>
        <object label="Deception of the route protection" Resources="" Knowledge="" Location="" id="reGFVTUNuUcH1NaiU9KH-18">
          <ag_attributes label="Fälschung ortsfester Referenzpunkte" Resources="4" Knowledge="4" Location="1" _marking="reGFVTUNuUcH1NaiU9KH-2" />
          <ag_computed_attributes fillColor="#40ff00" fontColor="#000000" value="1" />
          <ag_aggregation_function_reference ag_aggregation_function_reference="6b1d22791hih8" />
          <ag_computed_attributes_function_reference ag_computed_attributes_function_reference="dbg60ff69g9a" />
          <mxCell style="whiteSpace=wrap;shape=attackgraphs.node;verticalAlign=top;" parent="1" vertex="1">
            <mxGeometry x="-20" y="320" width="150" height="60" as="geometry" />
          </mxCell>
        </object>
        <object label="2" id="reGFVTUNuUcH1NaiU9KH-23">
          <ag_attributes />
          <ag_computed_attributes />
          <mxCell style="edgeStyle=none;rounded=0;orthogonalLoop=1;jettySize=auto;html=1;strokeWidth=2;fontSize=15;strokeColor=#000000;" parent="1" source="reGFVTUNuUcH1NaiU9KH-22" target="reGFVTUNuUcH1NaiU9KH-13" edge="1">
            <mxGeometry relative="1" as="geometry" />
          </mxCell>
        </object>
        <object label="2" id="reGFVTUNuUcH1NaiU9KH-25">
          <ag_attributes />
          <ag_computed_attributes />
          <mxCell style="edgeStyle=none;rounded=0;orthogonalLoop=1;jettySize=auto;html=1;strokeWidth=2;fontSize=15;strokeColor=#000000;" parent="1" source="reGFVTUNuUcH1NaiU9KH-22" target="reGFVTUNuUcH1NaiU9KH-6" edge="1">
            <mxGeometry relative="1" as="geometry" />
          </mxCell>
        </object>
        <object label="3" id="reGFVTUNuUcH1NaiU9KH-30">
          <ag_attributes />
          <ag_computed_attributes />
          <mxCell style="edgeStyle=none;rounded=0;orthogonalLoop=1;jettySize=auto;html=1;strokeWidth=2;fontSize=15;strokeColor=#000000;" parent="1" source="reGFVTUNuUcH1NaiU9KH-22" target="reGFVTUNuUcH1NaiU9KH-29" edge="1">
            <mxGeometry relative="1" as="geometry" />
          </mxCell>
        </object>
        <object label="3" id="lqs9lEzcYMTn2uexpbQ0-1">
          <ag_attributes />
          <ag_computed_attributes />
          <mxCell style="rounded=0;orthogonalLoop=1;jettySize=auto;html=1;strokeWidth=2;fontSize=15;strokeColor=#000000;" parent="1" source="reGFVTUNuUcH1NaiU9KH-22" target="reGFVTUNuUcH1NaiU9KH-8" edge="1">
            <mxGeometry relative="1" as="geometry" />
          </mxCell>
        </object>
        <object label="3" id="lqs9lEzcYMTn2uexpbQ0-25">
          <ag_attributes />
          <ag_computed_attributes />
          <mxCell style="edgeStyle=none;rounded=0;orthogonalLoop=1;jettySize=auto;html=1;strokeWidth=2;fontSize=15;strokeColor=#000000;" parent="1" source="reGFVTUNuUcH1NaiU9KH-22" target="lqs9lEzcYMTn2uexpbQ0-16" edge="1">
            <mxGeometry relative="1" as="geometry" />
          </mxCell>
        </object>
        <object label="2" id="lqs9lEzcYMTn2uexpbQ0-26">
          <ag_attributes />
          <ag_computed_attributes />
          <mxCell style="edgeStyle=none;rounded=0;orthogonalLoop=1;jettySize=auto;html=1;strokeWidth=2;fontSize=15;strokeColor=#000000;" parent="1" source="reGFVTUNuUcH1NaiU9KH-22" target="lqs9lEzcYMTn2uexpbQ0-14" edge="1">
            <mxGeometry relative="1" as="geometry" />
          </mxCell>
        </object>
        <object label="3" id="0znLiopEbYlMLDIVEbGm-2">
          <ag_attributes />
          <ag_computed_attributes />
          <mxCell style="rounded=0;orthogonalLoop=1;jettySize=auto;html=1;strokeWidth=2;fontSize=15;strokeColor=#000000;" parent="1" source="reGFVTUNuUcH1NaiU9KH-22" target="0znLiopEbYlMLDIVEbGm-1" edge="1">
            <mxGeometry relative="1" as="geometry" />
          </mxCell>
        </object>
        <object id="NY-WaI75QKOfGS1F8uei-27">
          <ag_attributes />
          <ag_computed_attributes />
          <mxCell style="edgeStyle=none;rounded=0;orthogonalLoop=1;jettySize=auto;html=1;strokeWidth=2;entryX=0.8;entryY=0.013;entryDx=0;entryDy=0;entryPerimeter=0;startArrow=diamondThin;startFill=1;endArrow=none;endFill=0;strokeColor=#000000;" parent="1" source="reGFVTUNuUcH1NaiU9KH-29" target="NY-WaI75QKOfGS1F8uei-19" edge="1">
            <mxGeometry relative="1" as="geometry" />
          </mxCell>
        </object>
        <object label="Preventing access to the distributed ledger for route protection by preventing communication" Resources="2" Knowledge="2" Location="0" id="reGFVTUNuUcH1NaiU9KH-29">
          <ag_attributes label="NaN" Resources="5" Knowledge="4" Location="0" />
          <ag_computed_attributes fillColor="#40ff00" fontColor="#000000" value="1" />
          <ag_computed_attributes_function_reference ag_computed_attributes_function_reference="dbg60ff69g9a" />
          <ag_aggregation_function_reference ag_aggregation_function_reference="73f575i0ghij5" />
          <mxCell style="whiteSpace=wrap;rounded=0;fillColor=#D7E3BF;shape=attackgraphs.node;verticalAlign=top;spacingRight=20;" parent="1" vertex="1">
            <mxGeometry x="1805" y="480" width="220" height="90" as="geometry" />
          </mxCell>
        </object>
        <object label="4" id="reGFVTUNuUcH1NaiU9KH-32">
          <ag_attributes />
          <ag_computed_attributes />
          <mxCell style="edgeStyle=none;rounded=0;orthogonalLoop=1;jettySize=auto;html=1;strokeWidth=2;fontSize=15;strokeColor=#000000;" parent="1" source="reGFVTUNuUcH1NaiU9KH-31" target="reGFVTUNuUcH1NaiU9KH-16" edge="1">
            <mxGeometry relative="1" as="geometry" />
          </mxCell>
        </object>
        <object label="4" id="lqs9lEzcYMTn2uexpbQ0-19">
          <ag_attributes />
          <ag_computed_attributes />
          <mxCell style="edgeStyle=none;rounded=0;orthogonalLoop=1;jettySize=auto;html=1;strokeWidth=2;fontSize=15;strokeColor=#000000;" parent="1" source="reGFVTUNuUcH1NaiU9KH-31" target="lqs9lEzcYMTn2uexpbQ0-15" edge="1">
            <mxGeometry relative="1" as="geometry" />
          </mxCell>
        </object>
        <object label="2" id="lqs9lEzcYMTn2uexpbQ0-20">
          <ag_attributes />
          <ag_computed_attributes />
          <mxCell style="edgeStyle=none;rounded=0;orthogonalLoop=1;jettySize=auto;html=1;strokeWidth=2;fontSize=15;strokeColor=#000000;" parent="1" source="reGFVTUNuUcH1NaiU9KH-31" target="lqs9lEzcYMTn2uexpbQ0-13" edge="1">
            <mxGeometry relative="1" as="geometry" />
          </mxCell>
        </object>
        <object label="2" id="lqs9lEzcYMTn2uexpbQ0-22">
          <ag_attributes />
          <ag_computed_attributes />
          <mxCell style="edgeStyle=none;rounded=0;orthogonalLoop=1;jettySize=auto;html=1;strokeWidth=2;fontSize=15;strokeColor=#000000;" parent="1" source="reGFVTUNuUcH1NaiU9KH-31" target="lqs9lEzcYMTn2uexpbQ0-16" edge="1">
            <mxGeometry relative="1" as="geometry" />
          </mxCell>
        </object>
        <object label="2" id="lqs9lEzcYMTn2uexpbQ0-23">
          <ag_attributes />
          <ag_computed_attributes />
          <mxCell style="edgeStyle=none;rounded=0;orthogonalLoop=1;jettySize=auto;html=1;strokeWidth=2;fontSize=15;strokeColor=#000000;" parent="1" source="reGFVTUNuUcH1NaiU9KH-31" target="lqs9lEzcYMTn2uexpbQ0-14" edge="1">
            <mxGeometry relative="1" as="geometry" />
          </mxCell>
        </object>
        <object label="3" id="lqs9lEzcYMTn2uexpbQ0-28">
          <ag_attributes />
          <ag_computed_attributes />
          <mxCell style="edgeStyle=none;rounded=0;orthogonalLoop=1;jettySize=auto;html=1;strokeWidth=2;fontSize=15;strokeColor=#000000;" parent="1" source="reGFVTUNuUcH1NaiU9KH-31" target="lqs9lEzcYMTn2uexpbQ0-2" edge="1">
            <mxGeometry relative="1" as="geometry" />
          </mxCell>
        </object>
        <object label="Financial Damage Operator" id="reGFVTUNuUcH1NaiU9KH-31">
          <ag_attributes _risk="L" _marking="reGFVTUNuUcH1NaiU9KH-16;lqs9lEzcYMTn2uexpbQ0-15;lqs9lEzcYMTn2uexpbQ0-13;lqs9lEzcYMTn2uexpbQ0-16;lqs9lEzcYMTn2uexpbQ0-14;lqs9lEzcYMTn2uexpbQ0-2" _weight="reGFVTUNuUcH1NaiU9KH-16:4;lqs9lEzcYMTn2uexpbQ0-15:4;lqs9lEzcYMTn2uexpbQ0-13:2;lqs9lEzcYMTn2uexpbQ0-16:2;lqs9lEzcYMTn2uexpbQ0-14:2;lqs9lEzcYMTn2uexpbQ0-2:3" />
          <ag_computed_attributes fillColor="#40ff00" fontColor="#000000" value="L" />
          <ag_computed_attributes_function_reference ag_computed_attributes_function_reference="6c831697g9i0a" />
          <ag_aggregation_function_reference ag_aggregation_function_reference="egf49jfgj408" />
          <mxCell style="rounded=1;whiteSpace=wrap;shape=attackgraphs.node;" parent="1" vertex="1">
            <mxGeometry x="364" y="110" width="222" height="48" as="geometry" />
          </mxCell>
        </object>
        <object label="3" id="reGFVTUNuUcH1NaiU9KH-34">
          <ag_attributes />
          <ag_computed_attributes />
          <mxCell style="edgeStyle=none;rounded=0;orthogonalLoop=1;jettySize=auto;html=1;strokeWidth=2;fontSize=15;strokeColor=#000000;" parent="1" source="reGFVTUNuUcH1NaiU9KH-33" target="reGFVTUNuUcH1NaiU9KH-18" edge="1">
            <mxGeometry relative="1" as="geometry" />
          </mxCell>
        </object>
        <object label="4" id="lqs9lEzcYMTn2uexpbQ0-27">
          <ag_attributes />
          <ag_computed_attributes />
          <mxCell style="edgeStyle=none;rounded=0;orthogonalLoop=1;jettySize=auto;html=1;strokeWidth=2;fontSize=15;strokeColor=#000000;" parent="1" source="reGFVTUNuUcH1NaiU9KH-33" target="lqs9lEzcYMTn2uexpbQ0-2" edge="1">
            <mxGeometry relative="1" as="geometry" />
          </mxCell>
        </object>
        <object label="3" id="lqs9lEzcYMTn2uexpbQ0-34">
          <ag_attributes />
          <ag_computed_attributes />
          <mxCell style="edgeStyle=none;rounded=0;orthogonalLoop=1;jettySize=auto;html=1;strokeWidth=2;fontSize=15;strokeColor=#000000;" parent="1" source="reGFVTUNuUcH1NaiU9KH-33" target="lqs9lEzcYMTn2uexpbQ0-15" edge="1">
            <mxGeometry relative="1" as="geometry" />
          </mxCell>
        </object>
        <object label="Violation of Physical Integrity" id="reGFVTUNuUcH1NaiU9KH-33">
          <ag_attributes _risk="L" _marking="reGFVTUNuUcH1NaiU9KH-18;lqs9lEzcYMTn2uexpbQ0-2;lqs9lEzcYMTn2uexpbQ0-15" _weight="reGFVTUNuUcH1NaiU9KH-18:3;lqs9lEzcYMTn2uexpbQ0-2:4;lqs9lEzcYMTn2uexpbQ0-15:3" />
          <ag_computed_attributes fillColor="#40ff00" fontColor="#000000" value="L" />
          <ag_computed_attributes_function_reference ag_computed_attributes_function_reference="6c831697g9i0a" />
          <ag_aggregation_function_reference ag_aggregation_function_reference="egf49jfgj408" />
          <mxCell style="rounded=1;whiteSpace=wrap;shape=attackgraphs.node;" parent="1" vertex="1">
            <mxGeometry x="-104" y="110" width="222" height="48" as="geometry" />
          </mxCell>
        </object>
        <object id="reGFVTUNuUcH1NaiU9KH-41">
          <ag_attributes />
          <ag_computed_attributes />
          <mxCell style="edgeStyle=none;rounded=0;orthogonalLoop=1;jettySize=auto;html=1;exitX=0;exitY=0.25;exitDx=0;exitDy=0;exitPerimeter=0;strokeWidth=2;strokeColor=#000000;" parent="1" source="H-f2aqcX1pLiw3MsK8zM-5" target="reGFVTUNuUcH1NaiU9KH-39" edge="1">
            <mxGeometry relative="1" as="geometry">
              <mxPoint x="233" y="923" as="sourcePoint" />
            </mxGeometry>
          </mxCell>
        </object>
        <object id="reGFVTUNuUcH1NaiU9KH-42">
          <ag_attributes />
          <ag_computed_attributes />
          <mxCell style="edgeStyle=none;rounded=0;orthogonalLoop=1;jettySize=auto;html=1;exitX=0;exitY=0.75;exitDx=0;exitDy=0;exitPerimeter=0;strokeWidth=2;strokeColor=#000000;" parent="1" source="H-f2aqcX1pLiw3MsK8zM-5" target="reGFVTUNuUcH1NaiU9KH-40" edge="1">
            <mxGeometry relative="1" as="geometry">
              <mxPoint x="248" y="920" as="sourcePoint" />
            </mxGeometry>
          </mxCell>
        </object>
        <object label="GNSS Spoofing" Resources="3" Knowledge="3" Location="1" id="reGFVTUNuUcH1NaiU9KH-39">
          <ag_attributes label="NaN" Resources="5" Knowledge="5" Location="1" />
          <ag_computed_attributes fillColor="#40ff00" fontColor="#000000" value="1" />
          <ag_computed_attributes_function_reference ag_computed_attributes_function_reference="dbg60ff69g9a" />
          <ag_aggregation_function_reference ag_aggregation_function_reference="73f575i0ghij5" />
          <mxCell style="whiteSpace=wrap;fillColor=#FEE599;shape=attackgraphs.node;verticalAlign=top;" parent="1" vertex="1">
            <mxGeometry x="60" y="960" width="150" height="60" as="geometry" />
          </mxCell>
        </object>
        <object label="Compromise FOS-unit&#10;(cf. Decentralized Interlocking)" Resources="2" Knowledge="1" Location="1" id="reGFVTUNuUcH1NaiU9KH-40">
          <ag_attributes label="NaN" Resources="5" Knowledge="5" Location="1" />
          <ag_computed_attributes fillColor="#40ff00" fontColor="#000000" value="1" />
          <ag_computed_attributes_function_reference ag_computed_attributes_function_reference="dbg60ff69g9a" />
          <ag_aggregation_function_reference ag_aggregation_function_reference="73f575i0ghij5" />
          <mxCell style="whiteSpace=wrap;shape=attackgraphs.node;verticalAlign=top;fillColor=#FEE599;spacingRight=20;" parent="1" vertex="1">
            <mxGeometry x="220" y="960" width="190" height="60" as="geometry" />
          </mxCell>
        </object>
        <object id="lqs9lEzcYMTn2uexpbQ0-38">
          <ag_attributes />
          <ag_computed_attributes />
          <mxCell style="edgeStyle=none;rounded=0;orthogonalLoop=1;jettySize=auto;html=1;strokeWidth=2;strokeColor=#000000;" parent="1" source="reGFVTUNuUcH1NaiU9KH-8" target="lqs9lEzcYMTn2uexpbQ0-37" edge="1">
            <mxGeometry relative="1" as="geometry" />
          </mxCell>
        </object>
        <object id="0znLiopEbYlMLDIVEbGm-12">
          <ag_attributes />
          <ag_computed_attributes />
          <mxCell style="edgeStyle=none;rounded=0;orthogonalLoop=1;jettySize=auto;html=1;strokeWidth=2;strokeColor=#000000;" parent="1" source="reGFVTUNuUcH1NaiU9KH-8" target="0znLiopEbYlMLDIVEbGm-11" edge="1">
            <mxGeometry relative="1" as="geometry" />
          </mxCell>
        </object>
        <object label="Forge/Manipulate Route Recommendations (Journey Profiles) or Train Schedule" Resources="" Knowledge="" Location="" id="reGFVTUNuUcH1NaiU9KH-8">
          <ag_attributes label="NaN" Resources="5" Knowledge="5" Location="0" _marking="lqs9lEzcYMTn2uexpbQ0-37" />
          <ag_computed_attributes fillColor="#40ff00" fontColor="#000000" value="1" />
          <ag_computed_attributes_function_reference ag_computed_attributes_function_reference="dbg60ff69g9a" />
          <ag_aggregation_function_reference ag_aggregation_function_reference="6b1d22791hih8" />
          <mxCell style="whiteSpace=wrap;shape=attackgraphs.node;verticalAlign=top;spacingRight=20;" parent="1" vertex="1">
            <mxGeometry x="2070" y="480" width="190" height="90" as="geometry" />
          </mxCell>
        </object>
        <object label="Manipulation of ATO" Resources="" Knowledge="" Location="" id="lqs9lEzcYMTn2uexpbQ0-2">
          <ag_attributes label="NaN" Resources="5" Knowledge="5" Location="1" _marking="H-f2aqcX1pLiw3MsK8zM-1" />
          <ag_computed_attributes fillColor="#40ff00" fontColor="#000000" value="1" />
          <ag_computed_attributes_function_reference ag_computed_attributes_function_reference="dbg60ff69g9a" />
          <ag_aggregation_function_reference ag_aggregation_function_reference="6b1d22791hih8" />
          <mxCell style="whiteSpace=wrap;shape=attackgraphs.node;verticalAlign=top;" parent="1" vertex="1">
            <mxGeometry x="-730" y="320" width="150" height="60" as="geometry" />
          </mxCell>
        </object>
        <object label="Forge Stationary Reference Points" Resources="4" Knowledge="4" Location="1" id="lqs9lEzcYMTn2uexpbQ0-11">
          <ag_attributes />
          <ag_computed_attributes fillColor="#40ff00" fontColor="#000000" value="1" />
          <ag_computed_attributes_function_reference ag_computed_attributes_function_reference="dbg60ff69g9a" />
          <mxCell style="rounded=0;whiteSpace=wrap;fillColor=#D7E3BF;shape=attackgraphs.node;verticalAlign=top;spacingRight=20;" parent="1" vertex="1">
            <mxGeometry x="450" y="960" width="150" height="60" as="geometry" />
          </mxCell>
        </object>
        <object label="3" id="lqs9lEzcYMTn2uexpbQ0-30">
          <ag_attributes />
          <ag_computed_attributes />
          <mxCell style="edgeStyle=none;rounded=0;orthogonalLoop=1;jettySize=auto;html=1;strokeWidth=2;fontSize=15;strokeColor=#000000;" parent="1" source="lqs9lEzcYMTn2uexpbQ0-29" target="lqs9lEzcYMTn2uexpbQ0-2" edge="1">
            <mxGeometry relative="1" as="geometry" />
          </mxCell>
        </object>
        <object label="Reputational Damage Operator" id="lqs9lEzcYMTn2uexpbQ0-29">
          <ag_attributes _risk="L" _marking="lqs9lEzcYMTn2uexpbQ0-2" _weight="lqs9lEzcYMTn2uexpbQ0-2:3" />
          <ag_computed_attributes fillColor="#40ff00" fontColor="#000000" value="L" />
          <ag_computed_attributes_function_reference ag_computed_attributes_function_reference="6c831697g9i0a" />
          <ag_aggregation_function_reference ag_aggregation_function_reference="egf49jfgj408" />
          <mxCell style="rounded=1;whiteSpace=wrap;shape=attackgraphs.node;" parent="1" vertex="1">
            <mxGeometry x="-460" y="110" width="190" height="48" as="geometry" />
          </mxCell>
        </object>
        <object label="Preventing the fulfillment of the Smart Contract" Resources="" Knowledge="" Location="" id="lqs9lEzcYMTn2uexpbQ0-31">
          <ag_attributes label="Fälschung ortsfester Referenzpunkte" Resources="4" Knowledge="4" Location="1" _marking="reGFVTUNuUcH1NaiU9KH-2" />
          <ag_computed_attributes fillColor="#40ff00" fontColor="#000000" value="1" />
          <ag_aggregation_function_reference ag_aggregation_function_reference="6b1d22791hih8" />
          <ag_computed_attributes_function_reference ag_computed_attributes_function_reference="dbg60ff69g9a" />
          <mxCell style="whiteSpace=wrap;shape=attackgraphs.node;verticalAlign=top;spacingRight=20;" parent="1" vertex="1">
            <mxGeometry x="260" y="600" width="150" height="75" as="geometry" />
          </mxCell>
        </object>
        <object label="Malware/bugs in smart contracts" Resources="2" Knowledge="3" Location="0" id="reGFVTUNuUcH1NaiU9KH-5">
          <ag_attributes label="NaN" Resources="4" Knowledge="5" Location="0" />
          <ag_computed_attributes fillColor="#40ff00" fontColor="#000000" value="1" />
          <ag_computed_attributes_function_reference ag_computed_attributes_function_reference="dbg60ff69g9a" />
          <ag_aggregation_function_reference ag_aggregation_function_reference="73f575i0ghij5" />
          <mxCell style="whiteSpace=wrap;rounded=0;fillColor=#D7E3BF;shape=attackgraphs.node;verticalAlign=top;spacingRight=20;" parent="1" vertex="1">
            <mxGeometry x="440" y="600" width="150" height="60" as="geometry" />
          </mxCell>
        </object>
        <object id="lqs9lEzcYMTn2uexpbQ0-44">
          <ag_attributes />
          <ag_computed_attributes />
          <mxCell style="edgeStyle=none;rounded=0;orthogonalLoop=1;jettySize=auto;html=1;entryX=1;entryY=0.5;entryDx=0;entryDy=0;entryPerimeter=0;strokeWidth=2;strokeColor=#000000;" parent="1" source="lqs9lEzcYMTn2uexpbQ0-2" target="H-f2aqcX1pLiw3MsK8zM-1" edge="1">
            <mxGeometry relative="1" as="geometry">
              <mxPoint x="-815" y="515" as="sourcePoint" />
              <mxPoint x="-655" y="425" as="targetPoint" />
            </mxGeometry>
          </mxCell>
        </object>
        <object id="NY-WaI75QKOfGS1F8uei-25">
          <ag_attributes />
          <ag_computed_attributes />
          <mxCell style="edgeStyle=none;rounded=0;orthogonalLoop=1;jettySize=auto;html=1;strokeWidth=2;startArrow=diamondThin;startFill=1;endArrow=none;endFill=0;strokeColor=#000000;" parent="1" source="lqs9lEzcYMTn2uexpbQ0-37" target="NY-WaI75QKOfGS1F8uei-24" edge="1">
            <mxGeometry relative="1" as="geometry" />
          </mxCell>
        </object>
        <object id="cTA5m-jb8gUGxeVt_BSC-2">
          <ag_attributes />
          <ag_computed_attributes />
          <mxCell style="rounded=0;orthogonalLoop=1;jettySize=auto;html=1;strokeWidth=2;startArrow=diamondThin;startFill=1;endArrow=none;endFill=0;strokeColor=#000000;" parent="1" source="lqs9lEzcYMTn2uexpbQ0-37" target="cTA5m-jb8gUGxeVt_BSC-1" edge="1">
            <mxGeometry relative="1" as="geometry" />
          </mxCell>
        </object>
        <object label="Manipulation/MitM of the transmission system" Resources="2" Knowledge="2" Location="0" id="lqs9lEzcYMTn2uexpbQ0-37">
          <ag_attributes label="NaN" Resources="5" Knowledge="5" Location="0" />
          <ag_computed_attributes fillColor="#40ff00" fontColor="#000000" value="1" />
          <ag_computed_attributes_function_reference ag_computed_attributes_function_reference="dbg60ff69g9a" />
          <ag_aggregation_function_reference ag_aggregation_function_reference="73f575i0ghij5" />
          <mxCell style="whiteSpace=wrap;rounded=0;fillColor=#D7E3BF;shape=attackgraphs.node;verticalAlign=top;spacingRight=20;" parent="1" vertex="1">
            <mxGeometry x="1890" y="680" width="160" height="60" as="geometry" />
          </mxCell>
        </object>
        <object id="NY-WaI75QKOfGS1F8uei-10">
          <ag_attributes />
          <ag_computed_attributes />
          <mxCell style="edgeStyle=none;rounded=0;orthogonalLoop=1;jettySize=auto;html=1;strokeWidth=2;entryX=0.5;entryY=0;entryDx=0;entryDy=0;startArrow=diamondThin;startFill=1;endArrow=none;endFill=0;strokeColor=#000000;" parent="1" source="lqs9lEzcYMTn2uexpbQ0-39" target="NY-WaI75QKOfGS1F8uei-9" edge="1">
            <mxGeometry relative="1" as="geometry" />
          </mxCell>
        </object>
        <object label="Suppress Board Communication" Resources="2" Knowledge="2" Location="0" id="lqs9lEzcYMTn2uexpbQ0-39">
          <ag_attributes label="NaN" Resources="5" Knowledge="4" Location="0" />
          <ag_computed_attributes fillColor="#40ff00" fontColor="#000000" value="1" />
          <ag_computed_attributes_function_reference ag_computed_attributes_function_reference="dbg60ff69g9a" />
          <ag_aggregation_function_reference ag_aggregation_function_reference="73f575i0ghij5" />
          <mxCell style="whiteSpace=wrap;rounded=0;fillColor=#D7E3BF;shape=attackgraphs.node;verticalAlign=top;" parent="1" vertex="1">
            <mxGeometry x="-300" y="760" width="150" height="60" as="geometry" />
          </mxCell>
        </object>
        <object label="Insert wrong Information in Distributed Ledger" Resources="3" Knowledge="3" Location="0" id="lqs9lEzcYMTn2uexpbQ0-40">
          <ag_attributes label="NaN" Resources="5" Knowledge="5" Location="0" />
          <ag_computed_attributes fillColor="#40ff00" fontColor="#000000" value="1" />
          <ag_computed_attributes_function_reference ag_computed_attributes_function_reference="dbg60ff69g9a" />
          <ag_aggregation_function_reference ag_aggregation_function_reference="73f575i0ghij5" />
          <mxCell style="whiteSpace=wrap;rounded=0;fillColor=#D7E3BF;shape=attackgraphs.node;verticalAlign=top;spacingRight=20;" parent="1" vertex="1">
            <mxGeometry x="-100" y="760" width="180" height="75" as="geometry" />
          </mxCell>
        </object>
        <object id="lqs9lEzcYMTn2uexpbQ0-46">
          <ag_attributes />
          <ag_computed_attributes />
          <mxCell style="edgeStyle=none;rounded=0;orthogonalLoop=1;jettySize=auto;html=1;exitX=0;exitY=0.25;exitDx=0;exitDy=0;exitPerimeter=0;entryX=1;entryY=0.5;entryDx=0;entryDy=0;entryPerimeter=0;strokeWidth=2;strokeColor=#000000;" parent="1" source="H-f2aqcX1pLiw3MsK8zM-1" target="H-f2aqcX1pLiw3MsK8zM-3" edge="1">
            <mxGeometry relative="1" as="geometry">
              <mxPoint x="-665" y="455" as="sourcePoint" />
              <mxPoint x="-955" y="500" as="targetPoint" />
              <Array as="points">
                <mxPoint x="-670" y="485" />
              </Array>
            </mxGeometry>
          </mxCell>
        </object>
        <object id="lqs9lEzcYMTn2uexpbQ0-51">
          <ag_attributes />
          <ag_computed_attributes />
          <mxCell style="edgeStyle=none;rounded=0;orthogonalLoop=1;jettySize=auto;html=1;entryX=1;entryY=0.5;entryDx=0;entryDy=0;entryPerimeter=0;exitX=0;exitY=0.75;exitDx=0;exitDy=0;exitPerimeter=0;strokeWidth=2;strokeColor=#000000;" parent="1" source="H-f2aqcX1pLiw3MsK8zM-1" target="H-f2aqcX1pLiw3MsK8zM-2" edge="1">
            <mxGeometry relative="1" as="geometry">
              <mxPoint x="-645" y="455" as="sourcePoint" />
              <mxPoint x="-525" y="500" as="targetPoint" />
              <Array as="points">
                <mxPoint x="-640" y="485" />
              </Array>
            </mxGeometry>
          </mxCell>
        </object>
        <object label="Acquire Remote Access to On-Board Network" Resources="2" Knowledge="3" Location="0" id="lqs9lEzcYMTn2uexpbQ0-45">
          <ag_attributes label="NaN" Resources="3" Knowledge="5" Location="1" />
          <ag_computed_attributes fillColor="#40ff00" fontColor="#000000" value="1" />
          <ag_computed_attributes_function_reference ag_computed_attributes_function_reference="dbg60ff69g9a" />
          <ag_aggregation_function_reference ag_aggregation_function_reference="73f575i0ghij5" />
          <mxCell style="whiteSpace=wrap;rounded=0;fillColor=#D7E3BF;shape=attackgraphs.node;verticalAlign=top;spacingRight=20;" parent="1" vertex="1">
            <mxGeometry x="-1120" y="600" width="150" height="70" as="geometry" />
          </mxCell>
        </object>
        <object label="Compromise Drive Control" Resources="4" Knowledge="4" Location="0" id="lqs9lEzcYMTn2uexpbQ0-49">
          <ag_attributes />
          <ag_computed_attributes fillColor="#d4ff00" fontColor="#000000" value="2" />
          <ag_computed_attributes_function_reference ag_computed_attributes_function_reference="dbg60ff69g9a" />
          <mxCell style="whiteSpace=wrap;rounded=0;fillColor=#D7E3BF;shape=attackgraphs.node;verticalAlign=top;" parent="1" vertex="1">
            <mxGeometry x="-770" y="600" width="150" height="70" as="geometry" />
          </mxCell>
        </object>
        <object id="lqs9lEzcYMTn2uexpbQ0-52">
          <ag_attributes />
          <ag_computed_attributes />
          <mxCell style="edgeStyle=none;rounded=0;orthogonalLoop=1;jettySize=auto;html=1;strokeWidth=2;exitX=0.175;exitY=0.25;exitDx=0;exitDy=0;exitPerimeter=0;strokeColor=#000000;" parent="1" source="H-f2aqcX1pLiw3MsK8zM-2" target="lqs9lEzcYMTn2uexpbQ0-49" edge="1">
            <mxGeometry relative="1" as="geometry">
              <mxPoint x="-545" y="525.5882352941176" as="sourcePoint" />
              <Array as="points">
                <mxPoint x="-540" y="545" />
              </Array>
            </mxGeometry>
          </mxCell>
        </object>
        <object id="lqs9lEzcYMTn2uexpbQ0-54">
          <ag_attributes />
          <ag_computed_attributes />
          <mxCell style="edgeStyle=none;rounded=0;orthogonalLoop=1;jettySize=auto;html=1;strokeWidth=2;exitX=0.25;exitY=0.5;exitDx=0;exitDy=0;exitPerimeter=0;strokeColor=#000000;" parent="1" source="H-f2aqcX1pLiw3MsK8zM-2" target="lqs9lEzcYMTn2uexpbQ0-53" edge="1">
            <mxGeometry relative="1" as="geometry">
              <mxPoint x="-525" y="530" as="sourcePoint" />
            </mxGeometry>
          </mxCell>
        </object>
        <object id="lqs9lEzcYMTn2uexpbQ0-56">
          <ag_attributes />
          <ag_computed_attributes />
          <mxCell style="edgeStyle=none;rounded=0;orthogonalLoop=1;jettySize=auto;html=1;strokeWidth=2;exitX=0.175;exitY=0.75;exitDx=0;exitDy=0;exitPerimeter=0;strokeColor=#000000;" parent="1" source="H-f2aqcX1pLiw3MsK8zM-2" target="lqs9lEzcYMTn2uexpbQ0-55" edge="1">
            <mxGeometry relative="1" as="geometry">
              <mxPoint x="-505" y="525.5882352941176" as="sourcePoint" />
              <Array as="points">
                <mxPoint x="-510" y="545" />
              </Array>
            </mxGeometry>
          </mxCell>
        </object>
        <object id="4U9F1CLsy6yUegcDI4D1-2">
          <ag_attributes />
          <ag_computed_attributes />
          <mxCell style="rounded=0;orthogonalLoop=1;jettySize=auto;html=1;strokeWidth=2;endArrow=none;startArrow=diamondThin;startFill=1;endFill=0;strokeColor=#000000;" parent="1" source="lqs9lEzcYMTn2uexpbQ0-53" target="4U9F1CLsy6yUegcDI4D1-1" edge="1">
            <mxGeometry relative="1" as="geometry" />
          </mxCell>
        </object>
        <object label="Insert false Sensor Data (Speed, Brake Force, ...)" Resources="3" Knowledge="3" Location="0" id="lqs9lEzcYMTn2uexpbQ0-53">
          <ag_attributes label="NaN" Resources="5" Knowledge="5" Location="0" />
          <ag_computed_attributes fillColor="#40ff00" fontColor="#000000" value="1" />
          <ag_computed_attributes_function_reference ag_computed_attributes_function_reference="dbg60ff69g9a" />
          <ag_aggregation_function_reference ag_aggregation_function_reference="73f575i0ghij5" />
          <mxCell style="whiteSpace=wrap;rounded=0;fillColor=#D7E3BF;shape=attackgraphs.node;verticalAlign=top;spacingRight=20;" parent="1" vertex="1">
            <mxGeometry x="-600" y="600" width="150" height="90" as="geometry" />
          </mxCell>
        </object>
        <object label="Insert false Control Command" Resources="3" Knowledge="4" Location="0" id="lqs9lEzcYMTn2uexpbQ0-55">
          <ag_attributes />
          <ag_computed_attributes fillColor="#ffdd00" fontColor="#000000" value="3" />
          <ag_computed_attributes_function_reference ag_computed_attributes_function_reference="dbg60ff69g9a" />
          <mxCell style="whiteSpace=wrap;rounded=0;fillColor=#D7E3BF;shape=attackgraphs.node;verticalAlign=top;spacingRight=20;" parent="1" vertex="1">
            <mxGeometry x="-430" y="600" width="160" height="80" as="geometry" />
          </mxCell>
        </object>
        <object id="lqs9lEzcYMTn2uexpbQ0-58">
          <ag_attributes />
          <ag_computed_attributes />
          <mxCell style="edgeStyle=none;rounded=0;orthogonalLoop=1;jettySize=auto;html=1;strokeWidth=2;exitX=0.175;exitY=0.25;exitDx=0;exitDy=0;exitPerimeter=0;strokeColor=#000000;" parent="1" source="H-f2aqcX1pLiw3MsK8zM-3" target="lqs9lEzcYMTn2uexpbQ0-45" edge="1">
            <mxGeometry relative="1" as="geometry">
              <mxPoint x="-970" y="530" as="sourcePoint" />
              <Array as="points">
                <mxPoint x="-962" y="545" />
              </Array>
            </mxGeometry>
          </mxCell>
        </object>
        <object id="lqs9lEzcYMTn2uexpbQ0-60">
          <ag_attributes />
          <ag_computed_attributes />
          <mxCell style="edgeStyle=none;rounded=0;orthogonalLoop=1;jettySize=auto;html=1;strokeWidth=2;exitX=0.175;exitY=0.75;exitDx=0;exitDy=0;exitPerimeter=0;strokeColor=#000000;" parent="1" source="H-f2aqcX1pLiw3MsK8zM-3" target="lqs9lEzcYMTn2uexpbQ0-59" edge="1">
            <mxGeometry relative="1" as="geometry">
              <mxPoint x="-942.5" y="530" as="sourcePoint" />
              <Array as="points">
                <mxPoint x="-937" y="545" />
              </Array>
            </mxGeometry>
          </mxCell>
        </object>
        <object label="(Before setting off)&#10;Acquire local access to the on-board network&#10;(free network port)" Resources="2" Knowledge="2" Location="0" id="lqs9lEzcYMTn2uexpbQ0-59">
          <ag_attributes label="NaN" Resources="3" Knowledge="4" Location="1" />
          <ag_computed_attributes fillColor="#d4ff00" fontColor="#000000" value="2" />
          <ag_computed_attributes_function_reference ag_computed_attributes_function_reference="dbg60ff69g9a" />
          <ag_aggregation_function_reference ag_aggregation_function_reference="73f575i0ghij5" />
          <mxCell style="whiteSpace=wrap;rounded=0;fillColor=#D7E3BF;shape=attackgraphs.node;verticalAlign=top;" parent="1" vertex="1">
            <mxGeometry x="-965" y="600" width="160" height="90" as="geometry" />
          </mxCell>
        </object>
        <object id="0znLiopEbYlMLDIVEbGm-4">
          <ag_attributes />
          <ag_computed_attributes />
          <mxCell style="edgeStyle=none;rounded=0;orthogonalLoop=1;jettySize=auto;html=1;strokeWidth=2;strokeColor=#000000;" parent="1" source="0znLiopEbYlMLDIVEbGm-1" target="0znLiopEbYlMLDIVEbGm-3" edge="1">
            <mxGeometry relative="1" as="geometry" />
          </mxCell>
        </object>
        <labelValue id="0znLiopEbYlMLDIVEbGm-6">
          <labelValue labelValue="" />
          <ag_attributes />
          <ag_computed_attributes />
          <mxCell style="edgeStyle=none;rounded=0;orthogonalLoop=1;jettySize=auto;html=1;strokeWidth=2;strokeColor=#000000;" parent="1" source="0znLiopEbYlMLDIVEbGm-1" target="0znLiopEbYlMLDIVEbGm-5" edge="1">
            <mxGeometry relative="1" as="geometry" />
          </mxCell>
        </labelValue>
        <object id="0znLiopEbYlMLDIVEbGm-13">
          <ag_attributes />
          <ag_computed_attributes />
          <mxCell style="edgeStyle=none;rounded=0;orthogonalLoop=1;jettySize=auto;html=1;strokeWidth=2;strokeColor=#000000;" parent="1" source="0znLiopEbYlMLDIVEbGm-1" target="reGFVTUNuUcH1NaiU9KH-15" edge="1">
            <mxGeometry relative="1" as="geometry" />
          </mxCell>
        </object>
        <object label="Limit availability of cloud computing" Resources="" Knowledge="" Location="" id="0znLiopEbYlMLDIVEbGm-1">
          <ag_attributes label="NaN" Resources="4" Knowledge="5" Location="1" _marking="reGFVTUNuUcH1NaiU9KH-15" />
          <ag_computed_attributes fillColor="#40ff00" fontColor="#000000" value="1" />
          <ag_computed_attributes_function_reference ag_computed_attributes_function_reference="dbg60ff69g9a" />
          <ag_aggregation_function_reference ag_aggregation_function_reference="6b1d22791hih8" />
          <mxCell style="whiteSpace=wrap;shape=attackgraphs.node;verticalAlign=top;spacingRight=20;" parent="1" vertex="1">
            <mxGeometry x="1420" y="480" width="160" height="60" as="geometry" />
          </mxCell>
        </object>
        <object id="0znLiopEbYlMLDIVEbGm-9">
          <ag_attributes />
          <ag_computed_attributes />
          <mxCell style="edgeStyle=none;rounded=0;orthogonalLoop=1;jettySize=auto;html=1;strokeWidth=2;strokeColor=#000000;" parent="1" source="0znLiopEbYlMLDIVEbGm-3" target="0znLiopEbYlMLDIVEbGm-7" edge="1">
            <mxGeometry relative="1" as="geometry" />
          </mxCell>
        </object>
        <object id="0znLiopEbYlMLDIVEbGm-10">
          <ag_attributes />
          <ag_computed_attributes />
          <mxCell style="edgeStyle=none;rounded=0;orthogonalLoop=1;jettySize=auto;html=1;strokeWidth=2;strokeColor=#000000;" parent="1" source="0znLiopEbYlMLDIVEbGm-3" target="0znLiopEbYlMLDIVEbGm-8" edge="1">
            <mxGeometry relative="1" as="geometry" />
          </mxCell>
        </object>
        <object label="Consumption of cloud resources by neighboring applications" Resources="" Knowledge="" Location="" id="0znLiopEbYlMLDIVEbGm-3">
          <ag_attributes label="NaN" Resources="5" Knowledge="5" Location="0" _marking="0znLiopEbYlMLDIVEbGm-7" />
          <ag_computed_attributes fillColor="#40ff00" fontColor="#000000" value="1" />
          <ag_computed_attributes_function_reference ag_computed_attributes_function_reference="dbg60ff69g9a" />
          <ag_aggregation_function_reference ag_aggregation_function_reference="6b1d22791hih8" />
          <mxCell style="whiteSpace=wrap;shape=attackgraphs.node;verticalAlign=top;spacingRight=20;" parent="1" vertex="1">
            <mxGeometry x="1190" y="680" width="195" height="75" as="geometry" />
          </mxCell>
        </object>
        <object id="NY-WaI75QKOfGS1F8uei-20">
          <ag_attributes />
          <ag_computed_attributes />
          <mxCell style="edgeStyle=none;rounded=0;orthogonalLoop=1;jettySize=auto;html=1;strokeWidth=2;entryX=0.25;entryY=0;entryDx=0;entryDy=0;startArrow=diamondThin;startFill=1;endArrow=none;endFill=0;strokeColor=#000000;" parent="1" source="0znLiopEbYlMLDIVEbGm-5" target="NY-WaI75QKOfGS1F8uei-19" edge="1">
            <mxGeometry relative="1" as="geometry" />
          </mxCell>
        </object>
        <object label="Destruction/damage to the data center" Resources="3" Knowledge="4" Location="1" id="0znLiopEbYlMLDIVEbGm-5">
          <ag_attributes label="NaN" Resources="5" Knowledge="5" Location="1" />
          <ag_computed_attributes fillColor="#40ff00" fontColor="#000000" value="1" />
          <ag_computed_attributes_function_reference ag_computed_attributes_function_reference="dbg60ff69g9a" />
          <ag_aggregation_function_reference ag_aggregation_function_reference="73f575i0ghij5" />
          <mxCell style="whiteSpace=wrap;rounded=0;fillColor=#D7E3BF;shape=attackgraphs.node;verticalAlign=top;spacingRight=20;" parent="1" vertex="1">
            <mxGeometry x="1410" y="680" width="170" height="60" as="geometry" />
          </mxCell>
        </object>
        <object id="NY-WaI75QKOfGS1F8uei-14">
          <ag_attributes />
          <ag_computed_attributes />
          <mxCell style="edgeStyle=none;rounded=0;orthogonalLoop=1;jettySize=auto;html=1;strokeWidth=2;startArrow=diamondThin;startFill=1;endArrow=none;endFill=0;strokeColor=#000000;" parent="1" source="0znLiopEbYlMLDIVEbGm-7" target="NY-WaI75QKOfGS1F8uei-12" edge="1">
            <mxGeometry relative="1" as="geometry" />
          </mxCell>
        </object>
        <object id="NY-WaI75QKOfGS1F8uei-15">
          <ag_attributes />
          <ag_computed_attributes />
          <mxCell style="edgeStyle=none;rounded=0;orthogonalLoop=1;jettySize=auto;html=1;strokeWidth=2;entryX=0.25;entryY=0;entryDx=0;entryDy=0;startArrow=diamondThin;startFill=1;endArrow=none;endFill=0;strokeColor=#000000;" parent="1" source="0znLiopEbYlMLDIVEbGm-7" target="NY-WaI75QKOfGS1F8uei-13" edge="1">
            <mxGeometry relative="1" as="geometry" />
          </mxCell>
        </object>
        <object id="NY-WaI75QKOfGS1F8uei-17">
          <ag_attributes />
          <ag_computed_attributes />
          <mxCell style="edgeStyle=none;rounded=0;orthogonalLoop=1;jettySize=auto;html=1;strokeWidth=2;entryX=0.427;entryY=0.02;entryDx=0;entryDy=0;entryPerimeter=0;startArrow=diamondThin;startFill=1;endArrow=none;endFill=0;strokeColor=#000000;" parent="1" source="0znLiopEbYlMLDIVEbGm-7" target="NY-WaI75QKOfGS1F8uei-16" edge="1">
            <mxGeometry relative="1" as="geometry" />
          </mxCell>
        </object>
        <object label="Exploit Defective Separation" Resources="2" Knowledge="2" Location="0" id="0znLiopEbYlMLDIVEbGm-7">
          <ag_attributes label="NaN" Resources="5" Knowledge="5" Location="0" />
          <ag_computed_attributes fillColor="#40ff00" fontColor="#000000" value="1" />
          <ag_computed_attributes_function_reference ag_computed_attributes_function_reference="dbg60ff69g9a" />
          <ag_aggregation_function_reference ag_aggregation_function_reference="73f575i0ghij5" />
          <mxCell style="whiteSpace=wrap;rounded=0;fillColor=#D7E3BF;shape=attackgraphs.node;verticalAlign=top;spacingRight=20;" parent="1" vertex="1">
            <mxGeometry x="1180" y="830" width="160" height="75" as="geometry" />
          </mxCell>
        </object>
        <object id="NY-WaI75QKOfGS1F8uei-18">
          <ag_attributes />
          <ag_computed_attributes />
          <mxCell style="edgeStyle=none;rounded=0;orthogonalLoop=1;jettySize=auto;html=1;strokeWidth=2;startArrow=diamondThin;startFill=1;endArrow=none;endFill=0;strokeColor=#000000;" parent="1" source="0znLiopEbYlMLDIVEbGm-8" target="NY-WaI75QKOfGS1F8uei-16" edge="1">
            <mxGeometry relative="1" as="geometry" />
          </mxCell>
        </object>
        <object id="wWlVExiMDXkXYdkp4BO6-7">
          <ag_attributes />
          <ag_computed_attributes />
          <mxCell style="edgeStyle=none;rounded=0;orthogonalLoop=1;jettySize=auto;html=1;strokeWidth=2;startArrow=diamondThin;startFill=1;endArrow=none;endFill=0;strokeColor=#000000;" parent="1" source="0znLiopEbYlMLDIVEbGm-8" target="NY-WaI75QKOfGS1F8uei-13" edge="1">
            <mxGeometry relative="1" as="geometry" />
          </mxCell>
        </object>
        <object label="(Intentional) resource allocation misconfiguration" Resources="3" Knowledge="3" Location="0" id="0znLiopEbYlMLDIVEbGm-8">
          <ag_attributes label="NaN" Resources="5" Knowledge="5" Location="0" />
          <ag_computed_attributes fillColor="#40ff00" fontColor="#000000" value="1" />
          <ag_computed_attributes_function_reference ag_computed_attributes_function_reference="dbg60ff69g9a" />
          <ag_aggregation_function_reference ag_aggregation_function_reference="73f575i0ghij5" />
          <mxCell style="whiteSpace=wrap;rounded=0;fillColor=#D7E3BF;shape=attackgraphs.node;verticalAlign=top;spacingRight=20;" parent="1" vertex="1">
            <mxGeometry x="1370" y="830" width="160" height="75" as="geometry" />
          </mxCell>
        </object>
        <object id="NY-WaI75QKOfGS1F8uei-26">
          <ag_attributes />
          <ag_computed_attributes />
          <mxCell style="edgeStyle=none;rounded=0;orthogonalLoop=1;jettySize=auto;html=1;strokeWidth=2;startArrow=diamondThin;startFill=1;endArrow=none;endFill=0;strokeColor=#000000;" parent="1" source="0znLiopEbYlMLDIVEbGm-11" target="NY-WaI75QKOfGS1F8uei-24" edge="1">
            <mxGeometry relative="1" as="geometry" />
          </mxCell>
        </object>
        <object label="Data storage manipulation" Resources="3" Knowledge="4" Location="0" id="0znLiopEbYlMLDIVEbGm-11">
          <ag_attributes label="NaN" Resources="5" Knowledge="5" Location="0" />
          <ag_computed_attributes fillColor="#40ff00" fontColor="#000000" value="1" />
          <ag_computed_attributes_function_reference ag_computed_attributes_function_reference="dbg60ff69g9a" />
          <ag_aggregation_function_reference ag_aggregation_function_reference="73f575i0ghij5" />
          <mxCell style="whiteSpace=wrap;rounded=0;fillColor=#D7E3BF;shape=attackgraphs.node;verticalAlign=top;spacingRight=20;" parent="1" vertex="1">
            <mxGeometry x="2090" y="680" width="160" height="60" as="geometry" />
          </mxCell>
        </object>
        <object label="3" id="reGFVTUNuUcH1NaiU9KH-24">
          <ag_attributes />
          <ag_computed_attributes />
          <mxCell style="edgeStyle=none;rounded=0;orthogonalLoop=1;jettySize=auto;html=1;strokeWidth=2;fontSize=15;strokeColor=#000000;" parent="1" source="reGFVTUNuUcH1NaiU9KH-22" target="reGFVTUNuUcH1NaiU9KH-15" edge="1">
            <mxGeometry relative="1" as="geometry" />
          </mxCell>
        </object>
        <object label="3" id="wWlVExiMDXkXYdkp4BO6-3">
          <ag_attributes />
          <ag_computed_attributes />
          <mxCell style="rounded=0;orthogonalLoop=1;jettySize=auto;html=1;strokeWidth=2;entryX=1;entryY=0.25;entryDx=0;entryDy=0;fontSize=15;endArrow=none;endFill=0;strokeColor=#000000;" parent="1" source="reGFVTUNuUcH1NaiU9KH-22" target="wWlVExiMDXkXYdkp4BO6-2" edge="1">
            <mxGeometry relative="1" as="geometry" />
          </mxCell>
        </object>
        <object label="Disruption of a Critical Service" id="reGFVTUNuUcH1NaiU9KH-22">
          <ag_attributes _risk="L" _marking="reGFVTUNuUcH1NaiU9KH-13;reGFVTUNuUcH1NaiU9KH-6;reGFVTUNuUcH1NaiU9KH-29;reGFVTUNuUcH1NaiU9KH-8;lqs9lEzcYMTn2uexpbQ0-16;lqs9lEzcYMTn2uexpbQ0-14;0znLiopEbYlMLDIVEbGm-1;reGFVTUNuUcH1NaiU9KH-15;wWlVExiMDXkXYdkp4BO6-2" _weight="reGFVTUNuUcH1NaiU9KH-13:2;reGFVTUNuUcH1NaiU9KH-6:2;reGFVTUNuUcH1NaiU9KH-29:3;reGFVTUNuUcH1NaiU9KH-8:3;lqs9lEzcYMTn2uexpbQ0-16:3;lqs9lEzcYMTn2uexpbQ0-14:2;0znLiopEbYlMLDIVEbGm-1:3;reGFVTUNuUcH1NaiU9KH-15:3;wWlVExiMDXkXYdkp4BO6-2:1" />
          <ag_computed_attributes fillColor="#40ff00" fontColor="#000000" value="L" />
          <ag_computed_attributes_function_reference ag_computed_attributes_function_reference="6c831697g9i0a" />
          <ag_aggregation_function_reference ag_aggregation_function_reference="egf49jfgj408" />
          <mxCell style="rounded=1;whiteSpace=wrap;shape=attackgraphs.node;" parent="1" vertex="1">
            <mxGeometry x="1320" y="110" width="222" height="48" as="geometry" />
          </mxCell>
        </object>
        <object id="NY-WaI75QKOfGS1F8uei-22">
          <ag_attributes />
          <ag_computed_attributes />
          <mxCell style="edgeStyle=none;rounded=0;orthogonalLoop=1;jettySize=auto;html=1;strokeWidth=2;startArrow=diamondThin;startFill=1;endArrow=none;endFill=0;strokeColor=#000000;" parent="1" source="reGFVTUNuUcH1NaiU9KH-15" target="NY-WaI75QKOfGS1F8uei-21" edge="1">
            <mxGeometry relative="1" as="geometry" />
          </mxCell>
        </object>
        <object label="Jamming the communication network" Resources="2" Knowledge="2" Location="1" id="reGFVTUNuUcH1NaiU9KH-15">
          <ag_attributes label="NaN" Resources="4" Knowledge="5" Location="1" />
          <ag_computed_attributes fillColor="#40ff00" fontColor="#000000" value="1" />
          <ag_computed_attributes_function_reference ag_computed_attributes_function_reference="dbg60ff69g9a" />
          <ag_aggregation_function_reference ag_aggregation_function_reference="73f575i0ghij5" />
          <mxCell style="whiteSpace=wrap;rounded=0;fillColor=#D7E3BF;shape=attackgraphs.node;verticalAlign=top;spacingRight=20;" parent="1" vertex="1">
            <mxGeometry x="1600" y="680" width="190" height="60" as="geometry" />
          </mxCell>
        </object>
        <object id="H-f2aqcX1pLiw3MsK8zM-1">
          <ag_aggregation_function_reference ag_aggregation_function_reference="gf0d4f199018" />
          <ag_attributes label="NaN" Resources="5" Knowledge="5" Location="1" _marking="H-f2aqcX1pLiw3MsK8zM-3;H-f2aqcX1pLiw3MsK8zM-2" />
          <ag_computed_attributes />
          <mxCell style="shape=or;whiteSpace=wrap;html=1;rotation=-90;" parent="1" vertex="1">
            <mxGeometry x="-675" y="425" width="40" height="60" as="geometry" />
          </mxCell>
        </object>
        <object id="H-f2aqcX1pLiw3MsK8zM-2">
          <ag_aggregation_function_reference ag_aggregation_function_reference="6b1d22791hih8" />
          <ag_attributes label="Falsche Steuerbefehle einschleusen (Fahrmotor, Bremssteuerung, ...)" Resources="3" Knowledge="4" Location="0" _marking="lqs9lEzcYMTn2uexpbQ0-55" />
          <ag_computed_attributes />
          <mxCell style="shape=xor;whiteSpace=wrap;html=1;rotation=-90;" parent="1" vertex="1">
            <mxGeometry x="-545" y="485" width="40" height="60" as="geometry" />
          </mxCell>
        </object>
        <object id="H-f2aqcX1pLiw3MsK8zM-3">
          <ag_aggregation_function_reference ag_aggregation_function_reference="6b1d22791hih8" />
          <ag_attributes label="NaN" Resources="3" Knowledge="4" Location="1" _marking="lqs9lEzcYMTn2uexpbQ0-59" />
          <ag_computed_attributes />
          <mxCell style="shape=xor;whiteSpace=wrap;html=1;rotation=-90;" parent="1" vertex="1">
            <mxGeometry x="-970" y="490" width="40" height="50" as="geometry" />
          </mxCell>
        </object>
        <object id="H-f2aqcX1pLiw3MsK8zM-5">
          <ag_aggregation_function_reference ag_aggregation_function_reference="gf0d4f199018" />
          <ag_attributes label="NaN" Resources="5" Knowledge="5" Location="1" _marking="reGFVTUNuUcH1NaiU9KH-39;reGFVTUNuUcH1NaiU9KH-40" />
          <ag_computed_attributes />
          <mxCell style="shape=or;whiteSpace=wrap;html=1;rotation=-90;" parent="1" vertex="1">
            <mxGeometry x="200" y="860" width="30" height="50" as="geometry" />
          </mxCell>
        </object>
        <object label="Integrity Protection of Environment Monitoring&#10;Redundancy&#10;Plausibility Check" Resources="3" Knowledge="2" Location="0" id="MrJTc4iwlkmeg3qvCo2h-1">
          <ag_attributes />
          <ag_computed_attributes />
          <mxCell style="shape=attackgraphs.node;fillColor=#DAE8FC;verticalAlign=top;" parent="1" vertex="1">
            <mxGeometry x="585" y="1198" width="220" height="115" as="geometry" />
          </mxCell>
        </object>
        <object id="MrJTc4iwlkmeg3qvCo2h-2">
          <ag_attributes />
          <ag_computed_attributes />
          <mxCell style="rounded=0;orthogonalLoop=1;jettySize=auto;html=1;strokeWidth=2;startArrow=diamondThin;startFill=1;endArrow=none;endFill=0;strokeColor=#000000;" parent="1" source="lqs9lEzcYMTn2uexpbQ0-15" target="MrJTc4iwlkmeg3qvCo2h-1" edge="1">
            <mxGeometry relative="1" as="geometry" />
          </mxCell>
        </object>
        <object id="MrJTc4iwlkmeg3qvCo2h-6">
          <ag_attributes />
          <ag_computed_attributes />
          <mxCell style="edgeStyle=none;rounded=0;orthogonalLoop=1;jettySize=auto;html=1;strokeWidth=2;startArrow=diamondThin;startFill=1;endArrow=none;endFill=0;strokeColor=#000000;" parent="1" source="lqs9lEzcYMTn2uexpbQ0-16" target="MrJTc4iwlkmeg3qvCo2h-1" edge="1">
            <mxGeometry relative="1" as="geometry" />
          </mxCell>
        </object>
        <object id="MrJTc4iwlkmeg3qvCo2h-8">
          <ag_attributes />
          <ag_computed_attributes />
          <mxCell style="edgeStyle=none;rounded=0;orthogonalLoop=1;jettySize=auto;html=1;strokeWidth=2;startArrow=diamondThin;startFill=1;endArrow=none;endFill=0;strokeColor=#000000;" parent="1" source="lqs9lEzcYMTn2uexpbQ0-14" target="MrJTc4iwlkmeg3qvCo2h-1" edge="1">
            <mxGeometry relative="1" as="geometry" />
          </mxCell>
        </object>
        <object label="Integrity Protection of Environment Monitoring" Resources="3" Knowledge="2" Location="0" id="NY-WaI75QKOfGS1F8uei-1">
          <ag_attributes />
          <ag_computed_attributes />
          <mxCell style="shape=attackgraphs.node;fillColor=#DAE8FC;verticalAlign=top;" parent="1" vertex="1">
            <mxGeometry x="860" y="1198" width="220" height="115" as="geometry" />
          </mxCell>
        </object>
        <object id="NY-WaI75QKOfGS1F8uei-2">
          <ag_attributes />
          <ag_computed_attributes />
          <mxCell style="rounded=0;orthogonalLoop=1;jettySize=auto;html=1;strokeWidth=2;startArrow=diamondThin;startFill=1;endArrow=none;endFill=0;strokeColor=#000000;" parent="1" source="lqs9lEzcYMTn2uexpbQ0-13" target="NY-WaI75QKOfGS1F8uei-1" edge="1">
            <mxGeometry relative="1" as="geometry" />
          </mxCell>
        </object>
        <object label="" id="NY-WaI75QKOfGS1F8uei-4">
          <ag_attributes />
          <ag_computed_attributes />
          <mxCell style="endArrow=none;dashed=1;html=1;rounded=0;strokeWidth=1;strokeColor=#000000;" parent="1" edge="1">
            <mxGeometry width="50" height="50" relative="1" as="geometry">
              <mxPoint x="-1140" y="1130" as="sourcePoint" />
              <mxPoint x="2270" y="1130" as="targetPoint" />
            </mxGeometry>
          </mxCell>
        </object>
        <object label="Digital Signature" Resources="2" Knowledge="2" Location="0" id="NY-WaI75QKOfGS1F8uei-6">
          <ag_attributes />
          <ag_computed_attributes />
          <mxCell style="shape=attackgraphs.node;fillColor=#DAE8FC;verticalAlign=top;" parent="1" vertex="1">
            <mxGeometry x="-70" y="1000" width="120" height="60" as="geometry" />
          </mxCell>
        </object>
        <object label="Redundancy" Resources="3" Knowledge="2" Location="0" id="NY-WaI75QKOfGS1F8uei-9">
          <ag_attributes />
          <ag_computed_attributes />
          <mxCell style="shape=attackgraphs.node;fillColor=#DAE8FC;verticalAlign=top;" parent="1" vertex="1">
            <mxGeometry x="-300" y="1000" width="150" height="45" as="geometry" />
          </mxCell>
        </object>
        <object label="Network Segmentation&#10;Security Monitoring" Resources="1" Knowledge="1" Location="0" id="NY-WaI75QKOfGS1F8uei-12">
          <ag_attributes />
          <ag_computed_attributes />
          <mxCell style="shape=attackgraphs.node;fillColor=#DAE8FC;verticalAlign=top;" parent="1" vertex="1">
            <mxGeometry x="1070" y="1000" width="150" height="60" as="geometry" />
          </mxCell>
        </object>
        <object label="Awareness Training" Resources="1" Knowledge="1" Location="0" id="NY-WaI75QKOfGS1F8uei-13">
          <ag_attributes />
          <ag_computed_attributes />
          <mxCell style="shape=attackgraphs.node;fillColor=#DAE8FC;verticalAlign=top;" parent="1" vertex="1">
            <mxGeometry x="1230" y="1000" width="150" height="45" as="geometry" />
          </mxCell>
        </object>
        <object label="Access Control" Resources="1" Knowledge="1" Location="0" id="NY-WaI75QKOfGS1F8uei-16">
          <ag_attributes />
          <ag_computed_attributes />
          <mxCell style="shape=attackgraphs.node;fillColor=#DAE8FC;verticalAlign=top;" parent="1" vertex="1">
            <mxGeometry x="1392" y="1000" width="150" height="45" as="geometry" />
          </mxCell>
        </object>
        <object label="Redundancy" Resources="3" Knowledge="2" Location="0" id="NY-WaI75QKOfGS1F8uei-19">
          <ag_attributes />
          <ag_computed_attributes />
          <mxCell style="shape=attackgraphs.node;fillColor=#DAE8FC;verticalAlign=top;" parent="1" vertex="1">
            <mxGeometry x="1640" y="1000" width="150" height="45" as="geometry" />
          </mxCell>
        </object>
        <object label="Resilience" Resources="2" Knowledge="3" Location="0" id="NY-WaI75QKOfGS1F8uei-21">
          <ag_attributes />
          <ag_computed_attributes />
          <mxCell style="shape=attackgraphs.node;fillColor=#DAE8FC" parent="1" vertex="1">
            <mxGeometry x="1300" y="1198" width="150" height="75" as="geometry" />
          </mxCell>
        </object>
        <object label="Digital Signature" Resources="2" Knowledge="2" Location="0" id="NY-WaI75QKOfGS1F8uei-24">
          <ag_attributes />
          <ag_computed_attributes />
          <mxCell style="shape=attackgraphs.node;fillColor=#DAE8FC;verticalAlign=top;" parent="1" vertex="1">
            <mxGeometry x="2020" y="1000" width="150" height="45" as="geometry" />
          </mxCell>
        </object>
        <object label="Access Control" Resources="1" Knowledge="1" Location="0" id="cTA5m-jb8gUGxeVt_BSC-1">
          <ag_attributes />
          <ag_computed_attributes />
          <mxCell style="shape=attackgraphs.node;fillColor=#DAE8FC;verticalAlign=top;" parent="1" vertex="1">
            <mxGeometry x="1840" y="1000" width="150" height="45" as="geometry" />
          </mxCell>
        </object>
        <object id="wWlVExiMDXkXYdkp4BO6-4">
          <ag_attributes />
          <ag_computed_attributes />
          <mxCell style="edgeStyle=none;rounded=0;orthogonalLoop=1;jettySize=auto;html=1;strokeWidth=2;fontSize=15;strokeColor=#000000;" parent="1" source="wWlVExiMDXkXYdkp4BO6-2" target="lqs9lEzcYMTn2uexpbQ0-13" edge="1">
            <mxGeometry relative="1" as="geometry" />
          </mxCell>
        </object>
        <object id="eeA3JZ1QGmrxuYi9NXFQ-3">
          <ag_attributes />
          <ag_computed_attributes />
          <mxCell style="edgeStyle=none;rounded=0;orthogonalLoop=1;jettySize=auto;html=1;strokeWidth=2;endArrow=none;startArrow=diamondThin;startFill=1;endFill=0;strokeColor=#000000;" parent="1" source="wWlVExiMDXkXYdkp4BO6-2" target="wWlVExiMDXkXYdkp4BO6-5" edge="1">
            <mxGeometry relative="1" as="geometry" />
          </mxCell>
        </object>
        <object label="" id="wWlVExiMDXkXYdkp4BO6-2">
          <ag_attributes _af="2" _marking="lqs9lEzcYMTn2uexpbQ0-13" _impact="2" />
          <ag_computed_attributes />
          <ag_aggregation_function_reference ag_aggregation_function_reference="3j7heb16d5f6" />
          <mxCell style="whiteSpace=wrap;html=1;aspect=fixed;" parent="1" vertex="1">
            <mxGeometry x="1220" y="180" width="10" height="10" as="geometry" />
          </mxCell>
        </object>
        <object label="Business Continuity Management" Impact="2" id="wWlVExiMDXkXYdkp4BO6-5">
          <ag_attributes />
          <ag_computed_attributes />
          <mxCell style="shape=attackgraphs.node;fillColor=#DAE8FC;whiteSpace=wrap;" parent="1" vertex="1">
            <mxGeometry x="1030" y="125" width="150" height="55" as="geometry" />
          </mxCell>
        </object>
        <object label="Redundancy&#10;Plausibility Check" Resources="2" Knowledge="2" Location="0" id="XMnL7oD_qqrlnk2i4hbT-1">
          <ag_attributes />
          <ag_computed_attributes />
          <mxCell style="shape=attackgraphs.node;fillColor=#DAE8FC;verticalAlign=top;align=left;" parent="1" vertex="1">
            <mxGeometry x="-40" y="1213" width="150" height="85" as="geometry" />
          </mxCell>
        </object>
        <object id="XMnL7oD_qqrlnk2i4hbT-2">
          <ag_attributes />
          <ag_computed_attributes />
          <mxCell style="edgeStyle=none;rounded=0;orthogonalLoop=1;jettySize=auto;html=1;strokeWidth=2;startArrow=diamondThin;startFill=1;endArrow=none;endFill=0;strokeColor=#000000;" parent="1" source="reGFVTUNuUcH1NaiU9KH-39" target="XMnL7oD_qqrlnk2i4hbT-1" edge="1">
            <mxGeometry relative="1" as="geometry">
              <mxPoint x="91.75159235668798" y="880" as="sourcePoint" />
              <mxPoint x="336.3375796178343" y="1200" as="targetPoint" />
            </mxGeometry>
          </mxCell>
        </object>
        <object label="Access Control&#10;Secure Data Storage&#10;Access Restriction&#10;Check physical properties of the fiber optic cable&#10;Plausibility Check&#10;Redundancy&#10;Encryption&#10;Digital Signature" Resources="3" Knowledge="4" Location="0" id="XMnL7oD_qqrlnk2i4hbT-4">
          <ag_attributes />
          <ag_computed_attributes />
          <mxCell style="shape=attackgraphs.node;fillColor=#DAE8FC;verticalAlign=top;" parent="1" vertex="1">
            <mxGeometry x="190" y="1060" width="230" height="142" as="geometry" />
          </mxCell>
        </object>
        <object id="XMnL7oD_qqrlnk2i4hbT-5">
          <ag_attributes />
          <ag_computed_attributes />
          <mxCell style="edgeStyle=none;rounded=0;orthogonalLoop=1;jettySize=auto;html=1;strokeWidth=2;startArrow=diamondThin;startFill=1;endArrow=none;endFill=0;strokeColor=#000000;" parent="1" source="reGFVTUNuUcH1NaiU9KH-40" target="XMnL7oD_qqrlnk2i4hbT-4" edge="1">
            <mxGeometry relative="1" as="geometry">
              <mxPoint x="29.566473988439157" y="870" as="sourcePoint" />
              <mxPoint x="179.3930635838151" y="1230" as="targetPoint" />
            </mxGeometry>
          </mxCell>
        </object>
        <object label="System hardening&#10;Physical Protection&#10;Access Restriction" Resources="1" Knowledge="2" Location="1" id="XMnL7oD_qqrlnk2i4hbT-6">
          <ag_attributes />
          <ag_computed_attributes />
          <mxCell style="shape=attackgraphs.node;fillColor=#DAE8FC;verticalAlign=top;align=left;" parent="1" vertex="1">
            <mxGeometry x="-960" y="1000" width="150" height="75" as="geometry" />
          </mxCell>
        </object>
        <object id="XMnL7oD_qqrlnk2i4hbT-7">
          <ag_attributes />
          <ag_computed_attributes />
          <mxCell style="edgeStyle=none;rounded=0;orthogonalLoop=1;jettySize=auto;html=1;strokeWidth=2;startArrow=diamondThin;startFill=1;endArrow=none;endFill=0;strokeColor=#000000;" parent="1" source="lqs9lEzcYMTn2uexpbQ0-59" target="XMnL7oD_qqrlnk2i4hbT-6" edge="1">
            <mxGeometry relative="1" as="geometry">
              <mxPoint x="-850" y="772.5" as="sourcePoint" />
              <mxPoint x="-850" y="822.5" as="targetPoint" />
            </mxGeometry>
          </mxCell>
        </object>
        <object label="Access Control&#10;Physical Access Control&#10;Security Monitoring" Resources="1" Knowledge="2" Location="1" id="XMnL7oD_qqrlnk2i4hbT-8">
          <ag_attributes />
          <ag_computed_attributes />
          <mxCell style="shape=attackgraphs.node;fillColor=#DAE8FC;verticalAlign=top;align=left;" parent="1" vertex="1">
            <mxGeometry x="-1120" y="1000" width="150" height="75" as="geometry" />
          </mxCell>
        </object>
        <object id="XMnL7oD_qqrlnk2i4hbT-9">
          <ag_attributes />
          <ag_computed_attributes />
          <mxCell style="edgeStyle=none;rounded=0;orthogonalLoop=1;jettySize=auto;html=1;strokeWidth=2;startArrow=diamondThin;startFill=1;endArrow=none;endFill=0;strokeColor=#000000;" parent="1" source="lqs9lEzcYMTn2uexpbQ0-45" target="XMnL7oD_qqrlnk2i4hbT-8" edge="1">
            <mxGeometry relative="1" as="geometry">
              <mxPoint x="-1080" y="715" as="sourcePoint" />
              <mxPoint x="-1080" y="765" as="targetPoint" />
            </mxGeometry>
          </mxCell>
        </object>
        <object label="Integrity Protection of Environment Monitoring" Resources="3" Knowledge="2" Location="0" id="4U9F1CLsy6yUegcDI4D1-1">
          <ag_attributes />
          <ag_computed_attributes />
          <mxCell style="shape=attackgraphs.node;fillColor=#DAE8FC;verticalAlign=top;" parent="1" vertex="1">
            <mxGeometry x="-645" y="1198" width="240" height="45" as="geometry" />
          </mxCell>
        </object>
        <object label="Delay caused by distributed ledger consensus" Resources="2" Knowledge="2" Location="0" id="reGFVTUNuUcH1NaiU9KH-6">
          <ag_attributes label="NaN" Resources="5" Knowledge="4" Location="0" />
          <ag_computed_attributes fillColor="#40ff00" fontColor="#000000" value="1" />
          <ag_computed_attributes_function_reference ag_computed_attributes_function_reference="dbg60ff69g9a" />
          <ag_aggregation_function_reference ag_aggregation_function_reference="73f575i0ghij5" />
          <mxCell style="whiteSpace=wrap;rounded=0;fillColor=#D7E3BF;shape=attackgraphs.node;verticalAlign=top;spacingRight=20;" parent="1" vertex="1">
            <mxGeometry x="1600" y="480" width="190" height="60" as="geometry" />
          </mxCell>
        </object>
        <object label="Softare tests&#10;Verification of Smart Contracts" Resources="2" Knowledge="2" Location="0" id="4U9F1CLsy6yUegcDI4D1-3">
          <ag_attributes />
          <ag_computed_attributes />
          <mxCell style="shape=attackgraphs.node;fillColor=#DAE8FC;verticalAlign=top;whiteSpace=wrap;" parent="1" vertex="1">
            <mxGeometry x="420" y="1198" width="140" height="82" as="geometry" />
          </mxCell>
        </object>
      </root>
    </mxGraphModel>
  </diagram>
</mxfile>